# File created by Blade
# Date/Time:  Thu Jan 22 16:04:59 2015
# Frame Rate: 120.000 fps
#------------------------------------------------------
:FULLY-SPECIFIED
:DEGREES
2767
root 3.454943 36.927358 5.818907 -2.266257 -5.438727 2.069678
RightUpLeg 9.959536 -3.664562 -9.556909
RightLeg -4.705703 -0.000000 0.000000
RightFoot -10.104443 -10.865175 20.413073
RightToeBase 11.515573 -0.000000 -0.000000
LeftUpLeg 8.803641 0.351185 6.764232
LeftLeg -1.575277 -0.000000 0.000000
LeftFoot -6.632658 5.837602 -22.776432
LeftToeBase 6.173938 -0.000000 -0.000000
Spine 13.381676 -3.957829 -4.628333
RightShoulder -11.784276 -32.717412 -23.801947
RightArm -12.308707 27.240333 61.940129
RightForeArm 73.055068 -0.000000 10.880006
RightHand 6.076257 0.000000 -34.435834
RightHandThumb1 -24.326973 -0.000000 -32.862282
LeftShoulder -48.316698 42.794515 -5.818491
LeftArm 23.690330 -45.781488 -69.070485
LeftForeArm -3.230759 0.000000 3.552986
LeftHand -37.006725 -0.000000 29.694588
LeftHandThumb1 -26.253704 0.000000 33.147579
Head 28.433088 10.497835 4.084593
2768
root 3.454470 36.929047 5.816781 -2.218948 -5.475298 2.066586
RightUpLeg 9.896761 -3.664219 -9.551031
RightLeg -4.699859 -0.000000 0.000000
RightFoot -10.082829 -10.845908 20.398236
RightToeBase 11.484233 -0.000000 -0.000000
LeftUpLeg 8.766380 0.372424 6.767560
LeftLeg -1.587973 -0.000000 0.000000
LeftFoot -6.663475 5.841133 -22.876826
LeftToeBase 6.362917 -0.000000 -0.000000
Spine 13.346658 -3.943840 -4.617525
RightShoulder -11.853067 -32.754913 -23.762904
RightArm -12.391646 27.358643 61.959363
RightForeArm 73.113970 0.000000 10.838411
RightHand 6.065621 -0.000000 -34.326219
RightHandThumb1 -24.326973 -0.000000 -32.862282
LeftShoulder -48.429167 42.784516 -5.905658
LeftArm 23.574732 -45.795580 -69.068326
LeftForeArm -3.330404 -0.000000 3.502414
LeftHand -36.991835 -0.000000 29.850565
LeftHandThumb1 -26.253704 0.000000 33.147579
Head 28.352717 10.553866 4.077939
2769
root 3.453325 36.929870 5.815045 -2.175078 -5.512237 2.054724
RightUpLeg 9.847413 -3.645634 -9.533089
RightLeg -4.711959 -0.000000 0.000000
RightFoot -10.059864 -10.845943 20.413910
RightToeBase 11.473208 -0.000000 -0.000000
LeftUpLeg 8.728784 0.408037 6.782043
LeftLeg -1.582726 -0.000000 0.000000
LeftFoot -6.631972 5.855396 -22.808432
LeftToeBase 6.254361 -0.000000 -0.000000
Spine 13.316556 -3.937312 -4.599281
RightShoulder -11.920884 -32.824608 -23.710417
RightArm -12.410359 27.415421 61.988615
RightForeArm 73.300247 -0.000000 10.745642
RightHand 6.060991 -0.000000 -34.292753
RightHandThumb1 -24.326973 -0.000000 -32.862282
LeftShoulder -48.549801 42.758516 -5.985066
LeftArm 23.471004 -45.870390 -69.100897
LeftForeArm -3.198209 -0.000000 3.457095
LeftHand -36.927328 -0.000000 29.839566
LeftHandThumb1 -26.253704 0.000000 33.147579
Head 28.268656 10.619151 4.070763
2770
root 3.452207 36.931307 5.813901 -2.143282 -5.536766 2.045900
RightUpLeg 9.806526 -3.638812 -9.520713
RightLeg -4.709056 -0.000000 0.000000
RightFoot -10.049597 -10.832258 20.422410
RightToeBase 11.487540 -0.000000 -0.000000
LeftUpLeg 8.703000 0.372407 6.785359
LeftLeg -1.586523 -0.000000 0.000000
LeftFoot -6.641557 5.909862 -22.825354
LeftToeBase 6.184115 -0.000000 -0.000000
Spine 13.296411 -3.937321 -4.583054
RightShoulder -11.934037 -32.854477 -23.672174
RightArm -12.522915 27.405203 61.998542
RightForeArm 73.548065 -0.000000 10.696808
RightHand 6.061529 -0.000000 -34.111557
RightHandThumb1 -24.326973 -0.000000 -32.862282
LeftShoulder -48.620544 42.748689 -6.066434
LeftArm 23.342236 -46.003440 -69.122542
LeftForeArm -3.170998 -0.000000 3.437941
LeftHand -36.970661 -0.000000 30.023435
LeftHandThumb1 -26.253704 0.000000 33.147579
Head 28.200660 10.692146 4.071284
2771
root 3.451298 36.932056 5.813725 -2.116257 -5.562654 2.039361
RightUpLeg 9.767686 -3.635406 -9.511576
RightLeg -4.699763 -0.000000 0.000000
RightFoot -10.037713 -10.820295 20.428033
RightToeBase 11.486175 -0.000000 -0.000000
LeftUpLeg 8.678636 0.380957 6.791483
LeftLeg -1.577495 -0.000000 0.000000
LeftFoot -6.655186 5.918960 -22.828964
LeftToeBase 6.207806 -0.000000 -0.000000
Spine 13.284300 -3.916115 -4.567694
RightShoulder -11.984313 -32.905669 -23.589283
RightArm -12.602073 27.370317 61.995812
RightForeArm 73.815627 0.000000 10.619023
RightHand 6.021839 0.000000 -34.080487
RightHandThumb1 -24.326973 -0.000000 -32.862282
LeftShoulder -48.681663 42.704680 -6.124821
LeftArm 23.212895 -46.076696 -69.089514
LeftForeArm -3.126506 0.000000 3.359792
LeftHand -36.945394 -0.000000 30.074758
LeftHandThumb1 -26.253704 0.000000 33.147579
Head 28.129732 10.756999 4.089188
2772
root 3.450121 36.932421 5.813547 -2.092399 -5.578974 2.036960
RightUpLeg 9.738795 -3.623487 -9.505282
RightLeg -4.699206 -0.000000 0.000000
RightFoot -10.037245 -10.822214 20.430250
RightToeBase 11.507821 -0.000000 -0.000000
LeftUpLeg 8.655412 0.367416 6.793024
LeftLeg -1.575515 -0.000000 0.000000
LeftFoot -6.690952 5.927204 -22.921980
LeftToeBase 6.325497 -0.000000 -0.000000
Spine 13.275402 -3.890221 -4.559512
RightShoulder -12.044827 -32.968229 -23.498954
RightArm -12.676717 27.466236 61.985420
RightForeArm 73.985746 -0.000000 10.559978
RightHand 6.037029 0.000000 -34.032399
RightHandThumb1 -24.326973 -0.000000 -32.862282
LeftShoulder -48.665415 42.640791 -6.102619
LeftArm 23.021282 -46.195057 -69.046965
LeftForeArm -3.150000 -0.000000 3.309044
LeftHand -36.821927 -0.000000 30.339693
LeftHandThumb1 -26.253704 0.000000 33.147579
Head 28.070973 10.799719 4.100459
2773
root 3.448914 36.932460 5.814393 -2.075699 -5.593440 2.029763
RightUpLeg 9.717031 -3.620225 -9.494548
RightLeg -4.692265 -0.000000 0.000000
RightFoot -10.039302 -10.817499 20.418585
RightToeBase 11.512721 -0.000000 -0.000000
LeftUpLeg 8.642647 0.352420 6.797475
LeftLeg -1.569844 -0.000000 0.000000
LeftFoot -6.685293 5.966696 -22.873059
LeftToeBase 6.284179 -0.000000 -0.000000
Spine 13.271275 -3.866967 -4.537287
RightShoulder -12.091700 -32.981705 -23.424448
RightArm -12.792677 27.501939 61.954664
RightForeArm 74.180271 -0.000000 10.495067
RightHand 6.065457 -0.000000 -34.162502
RightHandThumb1 -24.326973 -0.000000 -32.862282
LeftShoulder -48.826589 42.679243 -6.282059
LeftArm 23.079922 -46.149661 -69.090697
LeftForeArm -3.320034 -0.000000 3.222100
LeftHand -36.916795 -0.000000 30.599193
LeftHandThumb1 -26.253704 0.000000 33.147579
Head 28.020490 10.873585 4.140464
